<?xml version="1.0" encoding="UTF-8"?>
<svg id="Ebene_1" xmlns="http://www.w3.org/2000/svg" xmlns:xlink="http://www.w3.org/1999/xlink" version="1.1" viewBox="0 0 1920 1080">
  <!-- Generator: Adobe Illustrator 30.2.1, SVG Export Plug-In . SVG Version: 2.1.1 Build 1)  -->
  <defs>
    <style>
      .st0 {
        fill: none;
      }

      .st1 {
        fill: #effcff;
      }

      .st2 {
        fill: #eb8b1a;
      }

      .st3 {
        clip-path: url(#clippath);
      }
    </style>
    <clipPath id="clippath">
      <rect class="st0" x="675.7" y="199.6" width="570.6" height="679.2"/>
    </clipPath>
  </defs>
  <g class="st3">
    <path class="st2" d="M996.7,290.2c-.2,0-.3,0-.5,0-1.6-.3-2.7-1.8-2.4-3.4l9.2-52.1c.3-1.6,1.8-2.7,3.4-2.4,1.6.3,2.7,1.8,2.4,3.4l-9.2,52.1c-.3,1.4-1.5,2.4-2.9,2.4"/>
    <path class="st2" d="M1005.8,233.2c-.9,0-1.8.7-1.9,1.6l-9.2,52.1c-.2,1.1.5,2.1,1.6,2.3,1,.2,2.1-.5,2.3-1.6l9.2-52.1c.2-1.1-.5-2.1-1.6-2.3-.1,0-.2,0-.3,0M996.7,291.1c-.2,0-.4,0-.7,0-2.1-.4-3.6-2.4-3.2-4.5l9.2-52.1c.4-2.1,2.4-3.6,4.5-3.2,2.1.4,3.6,2.4,3.2,4.5l-9.2,52.1c-.3,1.9-2,3.2-3.9,3.2"/>
    <path class="st2" d="M1063.6,314.5c-.5,0-1-.1-1.5-.4-1.4-.8-1.9-2.6-1.1-4l26.4-45.8c.8-1.4,2.6-1.9,4-1.1,1.4.8,1.9,2.6,1.1,4l-26.4,45.8c-.5.9-1.5,1.5-2.5,1.5"/>
    <path class="st2" d="M1090,263.8c-.2,0-.3,0-.5,0-.5.1-.9.5-1.2.9l-26.4,45.8c-.3.5-.3,1-.2,1.5.1.5.5.9.9,1.2.9.5,2.2.2,2.7-.7l26.4-45.8c.3-.5.3-1,.2-1.5-.1-.5-.5-.9-.9-1.2-.3-.2-.6-.3-1-.3M1063.6,315.5c-.7,0-1.4-.2-2-.5-.9-.5-1.6-1.4-1.8-2.4-.3-1-.1-2.1.4-3l26.4-45.8c.5-.9,1.4-1.6,2.4-1.8,1-.3,2.1-.1,3,.4.9.5,1.6,1.4,1.8,2.4s.1,2.1-.4,3l-26.4,45.8c-.7,1.2-2,2-3.4,2"/>
    <path class="st2" d="M1118.2,360.3c-.8,0-1.7-.4-2.3-1.1-1-1.2-.9-3.1.4-4.1l40.5-34c1.2-1,3.1-.9,4.1.4,1,1.2.9,3.1-.4,4.1l-40.5,34c-.6.5-1.2.7-1.9.7"/>
    <path class="st2" d="M1158.7,321.4c-.5,0-.9.2-1.3.5l-40.5,34c-.8.7-.9,1.9-.2,2.8.7.8,2,.9,2.8.2l40.5-34c.8-.7.9-1.9.2-2.8-.3-.4-.8-.6-1.3-.7,0,0-.1,0-.2,0M1118.2,361.3c-1.2,0-2.3-.5-3-1.4-1.4-1.7-1.2-4.1.5-5.5l40.5-34c.8-.7,1.8-1,2.9-.9,1,0,2,.6,2.7,1.4,1.4,1.7,1.2,4.1-.5,5.5l-40.5,34c-.7.6-1.6.9-2.5.9"/>
    <path class="st2" d="M1153.8,422c-1.2,0-2.3-.7-2.8-1.9-.6-1.5.2-3.2,1.8-3.8l49.7-18.1c1.5-.6,3.2.2,3.8,1.8.6,1.5-.2,3.2-1.8,3.8l-49.7,18.1c-.3.1-.7.2-1,.2"/>
    <path class="st2" d="M1203.5,399c-.2,0-.5,0-.7.1l-49.7,18.1c-1,.4-1.5,1.5-1.2,2.5.4,1,1.5,1.5,2.5,1.2l49.7-18.1c.5-.2.9-.5,1.1-1,.2-.5.2-1,0-1.5-.2-.5-.5-.9-1-1.1-.3-.1-.5-.2-.8-.2M1153.8,423c-1.6,0-3.1-1-3.7-2.6-.7-2,.3-4.3,2.3-5l49.7-18.1c1-.4,2-.3,3,.1.9.4,1.7,1.2,2,2.2.4,1,.3,2-.1,3-.4,1-1.2,1.7-2.2,2l-49.7,18.1c-.4.2-.9.2-1.3.2"/>
    <path class="st2" d="M1219.1,492.2h-52.9c-1.6,0-2.9-1.3-2.9-2.9s1.3-2.9,2.9-2.9h52.9c1.6,0,2.9,1.3,2.9,2.9s-1.3,2.9-2.9,2.9"/>
    <path class="st2" d="M1166.2,487.3c-1.1,0-2,.9-2,2s.9,2,2,2h52.9c1.1,0,2-.9,2-2s-.9-2-2-2h-52.9ZM1219.1,493.2h-52.9c-2.2,0-3.9-1.8-3.9-3.9s1.8-3.9,3.9-3.9h52.9c2.2,0,3.9,1.8,3.9,3.9s-1.8,3.9-3.9,3.9"/>
    <path class="st2" d="M925.4,290.2c.2,0,.3,0,.5,0,1.6-.3,2.7-1.8,2.4-3.4l-9.2-52.1c-.3-1.6-1.8-2.7-3.4-2.4-1.6.3-2.7,1.8-2.4,3.4l9.2,52.1c.3,1.4,1.5,2.4,2.9,2.4"/>
    <path class="st2" d="M916.2,233.2c-.1,0-.2,0-.3,0-1.1.2-1.8,1.2-1.6,2.3l9.2,52.1c.2,1.1,1.2,1.8,2.3,1.6,1.1-.2,1.8-1.2,1.6-2.3l-9.2-52.1c-.2-.9-1-1.6-1.9-1.6M925.4,291.1c-1.9,0-3.5-1.4-3.9-3.2l-9.2-52.1c-.4-2.1,1-4.2,3.2-4.5,2.1-.4,4.2,1.1,4.5,3.2l9.2,52.1c.4,2.1-1.1,4.2-3.2,4.5-.2,0-.5,0-.7,0"/>
    <path class="st2" d="M858.5,314.5c.5,0,1-.1,1.5-.4,1.4-.8,1.9-2.6,1.1-4l-26.4-45.8c-.8-1.4-2.6-1.9-4-1.1-1.4.8-1.9,2.6-1.1,4l26.4,45.8c.5.9,1.5,1.5,2.5,1.5"/>
    <path class="st2" d="M832,263.8c-.3,0-.7,0-1,.3-.5.3-.8.7-.9,1.2-.1.5,0,1,.2,1.5l26.4,45.8c.5.9,1.8,1.2,2.7.7.5-.3.8-.7.9-1.2.1-.5,0-1-.2-1.5l-26.4-45.8c-.3-.5-.7-.8-1.2-.9-.2,0-.3,0-.5,0M858.5,315.5c-1.4,0-2.7-.8-3.4-2l-26.4-45.8c-.5-.9-.7-2-.4-3,.3-1,.9-1.9,1.8-2.4.9-.5,2-.7,3-.4,1,.3,1.9.9,2.4,1.8l26.4,45.8c.5.9.7,2,.4,3s-.9,1.9-1.8,2.4c-.6.3-1.3.5-2,.5"/>
    <path class="st2" d="M803.9,360.3c.8,0,1.7-.4,2.3-1.1,1-1.2.9-3.1-.4-4.1l-40.5-34c-1.2-1-3.1-.9-4.1.4-1,1.2-.9,3.1.4,4.1l40.5,34c.6.5,1.2.7,1.9.7"/>
    <path class="st2" d="M763.4,321.4c0,0-.1,0-.2,0-.5,0-1,.3-1.3.7-.7.8-.6,2.1.2,2.8l40.5,34c.8.7,2.1.6,2.8-.2.7-.8.6-2.1-.2-2.8l-40.5-34c-.4-.3-.8-.5-1.3-.5M803.9,361.3c-.9,0-1.8-.3-2.5-.9l-40.5-34c-1.7-1.4-1.9-3.9-.5-5.5.7-.8,1.6-1.3,2.7-1.4,1,0,2.1.2,2.9.9l40.5,34c1.7,1.4,1.9,3.9.5,5.5-.7.9-1.8,1.4-3,1.4"/>
    <path class="st2" d="M768.3,422c1.2,0,2.3-.7,2.8-1.9.6-1.5-.2-3.2-1.8-3.8l-49.7-18.1c-1.5-.6-3.2.2-3.8,1.8s.2,3.2,1.8,3.8l49.7,18.1c.3.1.7.2,1,.2"/>
    <path class="st2" d="M718.6,399c-.3,0-.6,0-.8.2-.5.2-.8.6-1,1.1-.2.5-.2,1,0,1.5s.6.8,1.1,1l49.7,18.1c1,.4,2.2-.2,2.5-1.2.4-1-.2-2.1-1.2-2.5l-49.7-18.1c-.2,0-.4-.1-.7-.1M768.3,423c-.5,0-.9,0-1.3-.2l-49.7-18.1c-1-.4-1.8-1.1-2.2-2-.4-.9-.5-2-.1-3,.4-1,1.1-1.8,2-2.2,1-.4,2-.5,3-.1l49.7,18.1c2,.7,3.1,3,2.3,5-.6,1.5-2,2.6-3.7,2.6"/>
    <path class="st2" d="M703,492.2h52.9c1.6,0,2.9-1.3,2.9-2.9s-1.3-2.9-2.9-2.9h-52.9c-1.6,0-2.9,1.3-2.9,2.9s1.3,2.9,2.9,2.9"/>
    <path class="st2" d="M703,487.3c-1.1,0-2,.9-2,2s.9,2,2,2h52.9c1.1,0,2-.9,2-2s-.9-2-2-2h-52.9ZM755.9,493.2h-52.9c-2.2,0-3.9-1.8-3.9-3.9s1.8-3.9,3.9-3.9h52.9c2.2,0,3.9,1.8,3.9,3.9s-1.8,3.9-3.9,3.9"/>
    <path class="st2" d="M961,287c-1.6,0-2.9-1.3-2.9-2.9v-80.6c0-1.6,1.3-2.9,2.9-2.9s2.9,1.3,2.9,2.9v80.6c0,1.6-1.3,2.9-2.9,2.9"/>
    <path class="st2" d="M961,201.5c-1.1,0-2,.9-2,2v80.6c0,1.1.9,2,2,2s2-.9,2-2v-80.6c0-1.1-.9-2-2-2M961,288c-2.2,0-3.9-1.8-3.9-3.9v-80.6c0-2.2,1.8-3.9,3.9-3.9s3.9,1.8,3.9,3.9v80.6c0,2.2-1.8,3.9-3.9,3.9"/>
    <path class="st2" d="M1030.2,299.2c-1.5-.6-2.3-2.2-1.8-3.8l27.6-75.7c.6-1.5,2.2-2.3,3.8-1.8,1.5.6,2.3,2.2,1.8,3.8l-27.6,75.7c-.6,1.5-2.2,2.3-3.8,1.8"/>
    <path class="st2" d="M1030.5,298.3c.5.2,1,.2,1.5,0,.5-.2.8-.6,1-1.1l27.6-75.7c.2-.5.2-1,0-1.5-.2-.5-.6-.8-1.1-1-.5-.2-1-.2-1.5,0-.5.2-.8.6-1,1.1l-27.6,75.7c-.4,1,.2,2.1,1.2,2.5M1031.2,300.4c-.5,0-.9,0-1.3-.2-2-.7-3.1-3-2.3-5l27.6-75.7c.4-1,1.1-1.8,2-2.2.9-.4,2-.5,3-.1,1,.4,1.8,1.1,2.2,2,.4,1,.5,2,.1,3l-27.6,75.7c-.4,1-1.1,1.8-2,2.2-.5.2-1.1.4-1.7.4"/>
    <path class="st2" d="M1091,334.3c-1.2-1-1.4-2.9-.4-4.1l51.8-61.7c1-1.2,2.9-1.4,4.1-.4s1.4,2.9.4,4.1l-51.8,61.7c-1,1.2-2.9,1.4-4.1.4"/>
    <path class="st2" d="M1144.7,268.4c0,0-.1,0-.2,0-.5,0-1,.3-1.3.7l-51.8,61.8c-.3.4-.5.9-.5,1.4,0,.5.3,1,.7,1.3.4.3.9.5,1.4.4.5,0,1-.3,1.3-.7l51.8-61.7c.3-.4.5-.9.5-1.4,0-.5-.3-1-.7-1.3-.4-.3-.8-.5-1.3-.5M1092.9,336c-.9,0-1.8-.3-2.5-.9-.8-.7-1.3-1.6-1.4-2.7,0-1,.2-2.1.9-2.9l51.8-61.7c.7-.8,1.6-1.3,2.7-1.4,1,0,2.1.2,2.9.9.8.7,1.3,1.6,1.4,2.7,0,1-.2,2.1-.9,2.9l-51.8,61.7c-.7.8-1.6,1.3-2.7,1.4-.1,0-.2,0-.3,0"/>
    <path class="st2" d="M1136.1,388.1c-.8-1.4-.3-3.2,1.1-4l69.8-40.3c1.4-.8,3.2-.3,4,1.1.8,1.4.3,3.2-1.1,4l-69.8,40.3c-1.4.8-3.2.3-4-1.1"/>
    <path class="st2" d="M1208.5,344.4c-.3,0-.7,0-1,.3l-69.8,40.3c-.5.3-.8.7-.9,1.2-.1.5,0,1,.2,1.5.5.9,1.7,1.3,2.7.7l69.8-40.3c.9-.5,1.3-1.7.7-2.7-.4-.6-1-1-1.7-1M1138.7,390.6c-1.4,0-2.7-.7-3.4-2-.5-.9-.7-2-.4-3,.3-1,.9-1.9,1.8-2.4l69.8-40.3c1.9-1.1,4.3-.4,5.3,1.4,1.1,1.9.4,4.3-1.4,5.4l-69.8,40.3c-.6.4-1.3.5-2,.5"/>
    <path class="st2" d="M1160.2,454.1c-.3-1.6.8-3.1,2.4-3.4l79.4-14c1.6-.3,3.1.8,3.4,2.4.3,1.6-.8,3.1-2.4,3.4l-79.4,14c-1.6.3-3.1-.8-3.4-2.4"/>
    <path class="st2" d="M1242.4,437.7c-.1,0-.2,0-.3,0l-79.4,14c-1.1.2-1.8,1.2-1.6,2.3,0,.5.4,1,.8,1.3.4.3.9.4,1.5.3l79.4-14c.5,0,1-.4,1.3-.8.3-.4.4-1,.3-1.5-.2-1-1-1.6-1.9-1.6M1163,457.5c-.8,0-1.6-.2-2.2-.7-.9-.6-1.4-1.5-1.6-2.5-.4-2.1,1.1-4.2,3.2-4.5l79.4-14c2.1-.4,4.2,1.1,4.5,3.2.2,1,0,2.1-.6,2.9-.6.9-1.5,1.4-2.5,1.6l-79.4,14c-.2,0-.5,0-.7,0"/>
    <path class="st2" d="M1160.2,524.4c.3-1.6,1.8-2.7,3.4-2.4l79.4,14c1.6.3,2.7,1.8,2.4,3.4-.3,1.6-1.8,2.7-3.4,2.4l-79.4-14c-1.6-.3-2.7-1.8-2.4-3.4"/>
    <path class="st2" d="M1163,522.9c-.9,0-1.8.7-1.9,1.6,0,.5,0,1,.3,1.5.3.4.7.7,1.3.8l79.4,14c.5,0,1,0,1.5-.3.4-.3.7-.8.8-1.3.2-1.1-.5-2.1-1.6-2.3l-79.4-14c-.1,0-.2,0-.3,0M1242.4,542.8c-.2,0-.5,0-.7,0l-79.4-14c-1-.2-1.9-.8-2.5-1.6-.6-.9-.8-1.9-.6-2.9.4-2.1,2.4-3.6,4.5-3.2l79.4,14c2.1.4,3.6,2.4,3.2,4.5-.2,1-.8,1.9-1.6,2.5-.7.5-1.4.7-2.2.7"/>
    <path class="st2" d="M891.9,299.2c1.5-.6,2.3-2.2,1.8-3.8l-27.6-75.7c-.6-1.5-2.2-2.3-3.8-1.8-1.5.6-2.3,2.2-1.8,3.8l27.6,75.7c.6,1.5,2.2,2.3,3.8,1.8"/>
    <path class="st2" d="M863.3,218.8c-.2,0-.5,0-.7.1-.5.2-.9.5-1.1,1-.2.5-.2,1,0,1.5l27.6,75.7c.2.5.5.9,1,1.1.5.2,1,.2,1.5,0,1-.4,1.5-1.5,1.2-2.5l-27.6-75.7c-.2-.5-.5-.9-1-1.1-.3-.1-.5-.2-.8-.2M890.9,300.4c-.6,0-1.1-.1-1.7-.4-1-.4-1.7-1.2-2-2.2l-27.6-75.7c-.4-1-.3-2,.1-3,.4-.9,1.2-1.7,2.2-2,1-.4,2-.3,3,.1,1,.4,1.7,1.2,2,2.2l27.6,75.7c.7,2-.3,4.3-2.3,5-.4.2-.9.2-1.3.2"/>
    <path class="st2" d="M831.1,334.3c1.2-1,1.4-2.9.4-4.1l-51.8-61.7c-1-1.2-2.9-1.4-4.1-.4-1.2,1-1.4,2.9-.4,4.1l51.8,61.7c1,1.2,2.9,1.4,4.1.4"/>
    <path class="st2" d="M777.4,268.4c-.5,0-.9.2-1.3.5-.4.3-.6.8-.7,1.3,0,.5.1,1,.4,1.4l51.8,61.7c.7.8,1.9.9,2.8.2.4-.3.6-.8.7-1.3,0-.5-.1-1-.5-1.4l-51.8-61.7c-.3-.4-.8-.6-1.3-.7,0,0-.1,0-.2,0M829.2,336c-1.1,0-2.2-.5-3-1.4l-51.8-61.7c-.7-.8-1-1.8-.9-2.9,0-1,.6-2,1.4-2.7.8-.7,1.8-1,2.9-.9,1,0,2,.6,2.7,1.4l51.8,61.7c.7.8,1,1.8.9,2.9,0,1-.6,2-1.4,2.7-.7.6-1.6.9-2.5.9"/>
    <path class="st2" d="M785.9,388.1c.8-1.4.3-3.2-1.1-4l-69.8-40.3c-1.4-.8-3.2-.3-4,1.1-.8,1.4-.3,3.2,1.1,4l69.8,40.3c1.4.8,3.2.3,4-1.1"/>
    <path class="st2" d="M713.6,344.4c-.7,0-1.3.4-1.7,1-.5.9-.2,2.1.7,2.7l69.8,40.3c.9.5,2.1.2,2.7-.7.5-.9.2-2.1-.7-2.7l-69.8-40.3c-.3-.2-.6-.3-1-.3M783.4,390.6c-.7,0-1.3-.2-2-.5l-69.8-40.3c-1.9-1.1-2.5-3.5-1.4-5.4,1.1-1.9,3.5-2.5,5.4-1.4l69.8,40.3c1.9,1.1,2.5,3.5,1.4,5.3-.7,1.3-2,2-3.4,2"/>
    <path class="st2" d="M761.9,454.1c.3-1.6-.8-3.1-2.4-3.4l-79.4-14c-1.6-.3-3.1.8-3.4,2.4-.3,1.6.8,3.1,2.4,3.4l79.4,14c1.6.3,3.1-.8,3.4-2.4"/>
    <path class="st2" d="M679.6,437.7c-.9,0-1.8.7-1.9,1.6,0,.5,0,1,.3,1.5.3.4.7.7,1.3.8l79.4,14c.5,0,1,0,1.5-.3.4-.3.7-.8.8-1.3.2-1.1-.5-2.1-1.6-2.3l-79.4-14c-.1,0-.2,0-.3,0M759,457.5c-.2,0-.5,0-.7,0l-79.4-14c-1-.2-1.9-.8-2.5-1.6-.6-.9-.8-1.9-.6-2.9.4-2.1,2.4-3.6,4.5-3.2l79.4,14c2.1.4,3.6,2.4,3.2,4.5-.2,1-.8,1.9-1.6,2.5-.7.5-1.4.7-2.2.7"/>
    <path class="st2" d="M761.9,524.4c-.3-1.6-1.8-2.7-3.4-2.4l-79.4,14c-1.6.3-2.7,1.8-2.4,3.4.3,1.6,1.8,2.7,3.4,2.4l79.4-14c1.6-.3,2.7-1.8,2.4-3.4"/>
    <path class="st2" d="M759,522.9c-.1,0-.2,0-.3,0l-79.4,14c-1.1.2-1.8,1.2-1.6,2.3,0,.5.4,1,.8,1.3.4.3.9.4,1.5.3l79.4-14c.5,0,1-.4,1.3-.8.3-.4.4-1,.3-1.5-.2-1-1-1.6-1.9-1.6M679.6,542.8c-.8,0-1.6-.2-2.2-.7-.9-.6-1.4-1.5-1.6-2.5-.4-2.1,1.1-4.2,3.2-4.5l79.4-14c2.1-.4,4.2,1,4.5,3.2h0c.2,1,0,2.1-.7,2.9-.6.9-1.5,1.4-2.5,1.6l-79.4,14c-.2,0-.5,0-.7,0"/>
    <path class="st1" d="M1201.7,666.8c0,7.8-2.3,12.2-9.2,12.2s-10.8-4.4-10.8-15.2v-26.1c0-10.8,4.2-15.2,10.8-15.2s9.2,4.2,9.2,12.2v32.1ZM1200.5,604c-10.2,0-17.8,5.5-21.2,14.8l-.4-13.1h-18.5v117.3h21.3v-35.3c4.1,6.2,10.6,9.7,18.7,9.7,14.3,0,22.6-9,22.6-28.2v-37.2c0-19.1-8.3-28.1-22.6-28.1M1115.4,697.5c21.5,0,32.8-12.3,32.8-33.3v-91.9h-21.2v93.3c0,8.6-4.1,12.3-11.3,12.3s-11.1-3.7-11.1-12.3v-93.3h-22.1v91.9c0,21,11.1,33.3,32.8,33.3M1024.8,651.8h44.1v-18h-44.1v18ZM929,695.7h29.1l10.2-84.2,10.2,84.2h27.3l14.3-123.5h-19.1l-10.1,94.9-10.9-94.9h-23.3l-10.9,94.9-10.1-94.9h-21.2l14.3,123.5ZM873.7,677.9c-7.2,0-11.3-4.2-11.3-12.7v-62.5c0-8.6,4.1-12.7,11.3-12.7s11.5,4.1,11.5,12.7v62.5c0,8.5-4.2,12.7-11.5,12.7M873.7,697.5c21.7,0,33.5-12.3,33.5-33.3v-60.3c0-21.2-11.8-33.3-33.5-33.3s-33.3,12.2-33.3,33.3v60.3c0,21,11.8,33.3,33.3,33.3M777,695.7h58.4v-19.6h-36.3v-103.9h-22v123.5ZM732.8,697.5c21,0,32.8-12.2,32.8-33.2v-38.8h-31.8v20.1h10.9v19.6c0,8.6-4.2,12.7-11.5,12.7s-11.3-4.1-11.3-12.7v-62.5c0-8.6,4.1-12.7,11.3-12.7s11.5,4.1,11.5,12.7v9.9h20.8v-8.8c0-21.2-11.8-33.3-32.8-33.3s-32.8,12.2-32.8,33.3v60.5c0,21,11.6,33.2,32.8,33.2"/>
    <path class="st1" d="M1159.4,542.8c-16.3-3.1-36.3-5.8-59.2-7.9v-71.9l-30.6-14.1v-48.1h-35.9v-49.4h-41.6v96.9h-29.1v-48.6l-22.3-26.1h-41.6v104.6h-12.9v-36l-31.7-18.5-31.7,18.5v92.9c-23.2,2.1-43.3,4.6-59.2,7.7h395.8Z"/>
    <path class="st1" d="M1146.5,859.1v-1.4c0-2.2,1.2-3.4,3.5-3.4s3.5,1.2,3.5,3.4v1.4h-7ZM1149.9,850.5c-5.2,0-8,2.8-8,7.7v6.4c0,4.9,2.9,7.7,8,7.7s7.9-2.7,8-7.3h-4.4c0,2.2-1.2,3.5-3.5,3.5s-3.5-1.3-3.5-3.5v-2.7h11.5v-4.2c0-5-2.8-7.7-8-7.7M1138.7,854.7v-3.8h-4.5v-5.6h-4.1l-.3,5.6h-3.4v3.8h3.2v11.4c0,4.2,2,6.2,6.1,6.2s2-.2,3-.5v-3.9c-.7.3-1.5.4-2.1.4-1.8,0-2.5-.7-2.5-2.7v-10.9h4.5ZM1119.7,871.9h5.1l-6.7-13.2,6.4-7.9h-5.2l-7.3,9.4v-17.4h-4.6v29.1h4.6v-6l2.9-3.6,4.8,9.6ZM1091.8,859.1v-1.4c0-2.2,1.2-3.4,3.5-3.4s3.5,1.2,3.5,3.4v1.4h-7ZM1095.3,850.5c-5.2,0-8,2.8-8,7.7v6.4c0,4.9,2.9,7.7,8,7.7s7.9-2.7,8-7.3h-4.4c0,2.2-1.2,3.5-3.5,3.5s-3.5-1.3-3.5-3.5v-2.7h11.5v-4.2c0-5-2.8-7.7-8-7.7M1077.9,878.8c3.5,0,5.2-1.8,5.2-5.4v-22.5h-4.6v22.2c0,1.3-.4,1.8-1.5,1.8s-1.2-.1-1.7-.3v3.7c.7.4,1.6.5,2.6.5M1078.5,847.7h4.6v-5.2h-4.6v5.2ZM1066.4,868.4c-2.2,0-3.4-1.2-3.4-3.4v-7.1c0-2.2,1.2-3.4,3.4-3.4s3.4,1.2,3.4,3.4v7.1c0,2.2-1.2,3.4-3.4,3.4M1066.4,872.4c5.1,0,8-2.7,8-7.7v-6.4c0-4.9-2.9-7.7-8-7.7s-8,2.8-8,7.7v6.4c0,5,2.9,7.7,8,7.7M1054.2,850.5c-2.8,0-4.6,1.5-5.4,4.6v-4.2h-4.1v21h4.6v-10.9c0-4,1.7-6,5-6s1.1,0,1.5.2v-4.4c-.5-.2-1-.3-1.7-.3M1035.8,864.6c0,2.6-.9,3.8-3,3.8s-3.8-1.6-3.8-4.7v-4.7c0-3.1,1.3-4.7,3.8-4.7s3,1.2,3,3.8v6.4ZM1034.5,850.5c-3,0-5.1,1.5-6,4.1v-3.7h-4.1v27.5h4.6v-9c1,1.9,3,2.9,5.5,2.9,3.9,0,5.9-2.4,5.9-7v-7.9c0-4.6-2-7-5.9-7M1013.1,872.4c4.9,0,7.5-2.6,7.5-6.7s-3.1-5.3-6.1-6.1c-2.7-.6-4.5-1.1-4.5-3s1.3-2.5,2.9-2.5,2.9.8,2.9,2.4v.4h4.3v-.5c0-3.7-2.9-6.1-7.3-6.1s-7.3,2.5-7.3,6.4,3,5.7,6.1,6.3c2.5.5,4.4,1,4.4,2.8s-1.2,2.7-3.2,2.7-3.2-1-3.2-2.7v-.7h-4.4v.7c0,3.9,2.8,6.4,7.8,6.4M993.2,866.8c-2.2,0-3.1-1.2-3.1-3.8v-4.8c0-2.6.9-3.8,3.1-3.8s3.7,1.6,3.7,4.7v3.1c0,3.1-1.3,4.7-3.7,4.7M997.6,850.9v3.7c-1-2.6-3.1-4.1-6.1-4.1s-5.9,2.4-5.9,7v6.3c0,4.6,2,7,5.9,7s4.4-1,5.4-2.9v3.6c0,2.6-1,3.6-3.5,3.6s-3.1-.6-3.3-2.1h-4.4c.2,4,2.9,5.9,7.7,5.9s8-2.9,8-7.4v-20.5h-3.9ZM975.7,850.5c-3,0-5,1.5-5.9,4.1v-3.7h-4.1v21h4.6v-12.8c0-3.1,1.3-4.7,3.7-4.7s3,1.2,3,3.8v13.7h4.6v-14.5c0-4.6-2-7-5.8-7M956.4,850.9v12.8c0,3.1-1.3,4.7-3.7,4.7s-3-1.2-3-3.8v-13.7h-4.6v14.5c0,4.6,2,7,5.8,7s5-1.5,5.9-4.1v3.7h4.1v-21h-4.6ZM926.6,871.9h15v-3.8h-10.1l10.1-13.4v-3.8h-14.4v3.9h9.6l-10.1,13.3v3.8ZM923.9,854.7v-3.8h-4.5v-5.6h-4.1l-.3,5.6h-3.4v3.8h3.2v11.4c0,4.2,2,6.2,6.1,6.2s2-.2,3-.5v-3.9c-.7.3-1.5.4-2.1.4-1.8,0-2.5-.7-2.5-2.7v-10.9h4.5ZM897.4,859.1v-1.4c0-2.2,1.2-3.4,3.5-3.4s3.5,1.2,3.5,3.4v1.4h-7ZM900.8,850.5c-5.2,0-8,2.8-8,7.7v6.4c0,4.9,2.9,7.7,8,7.7s7.9-2.7,8-7.3h-4.4c0,2.2-1.2,3.5-3.5,3.5s-3.5-1.3-3.5-3.5v-2.7h11.5v-4.2c0-5-2.8-7.7-8-7.7M882.1,872.4c4.9,0,7.5-2.6,7.5-6.7s-3.1-5.3-6.1-6.1c-2.7-.6-4.5-1.1-4.5-3s1.3-2.5,2.9-2.5,2.9.8,2.9,2.4v.4h4.3v-.5c0-3.7-2.9-6.1-7.3-6.1s-7.3,2.5-7.3,6.4,3,5.7,6.1,6.3c2.5.5,4.4,1,4.4,2.8s-1.2,2.7-3.2,2.7-3.2-1-3.2-2.7v-.7h-4.4v.7c0,3.9,2.8,6.4,7.8,6.4M865,850.5c-2.8,0-4.8,1.4-5.7,3.8-.7-2.5-2.6-3.8-5.3-3.8s-4.9,1.5-5.8,4v-3.6h-4.1v21h4.6v-12.8c0-3,1.2-4.7,3.6-4.7s2.9,1.3,2.9,3.8v13.7h4.6v-12.8c0-3.1,1.2-4.7,3.5-4.7s2.9,1.5,2.9,3.8v13.7h4.6v-14.5c0-4.6-2-7-5.7-7M831,872.4c5.5,0,8.5-3,8.5-8.3v-21.2h-4.6v21.5c0,2.6-1.3,3.8-3.8,3.8s-3.8-1.2-3.8-3.8v-21.5h-4.7v21.2c0,5.2,2.9,8.3,8.4,8.3M810.1,850.5c-2.8,0-4.6,1.5-5.4,4.6v-4.2h-4.1v21h4.6v-10.9c0-4,1.7-6,5-6s1.1,0,1.5.2v-4.4c-.5-.2-1-.3-1.7-.3M791.3,850.9v12.8c0,3.1-1.3,4.7-3.7,4.7s-3-1.2-3-3.8v-13.7h-4.6v14.5c0,4.6,2,7,5.8,7s5-1.5,5.9-4.1v3.7h4.1v-21h-4.6ZM793.8,842.5h-4.4v5.2h4.4v-5.2ZM786.8,842.5h-4.4v5.2h4.4v-5.2ZM774.8,846.5c.6,0,1.3,0,2.1.4v-3.9c-1-.4-1.8-.5-3-.5-4.2,0-6.2,2-6.2,6.2v2.2h-3.2v3.8h3.2v17.3h4.6v-17.3h4.5v-3.8h-4.5v-1.7c0-2,.7-2.7,2.5-2.7"/>
    <path class="st1" d="M1238,821.8c-2.2,0-3.1-1.2-3.1-3.8v-4.8c0-2.6.9-3.8,3.1-3.8s3.7,1.6,3.7,4.7v3.1c0,3.1-1.3,4.7-3.7,4.7M1242.4,805.9v3.7c-1-2.6-3.1-4.1-6.1-4.1s-5.9,2.4-5.9,7v6.3c0,4.6,2,7,5.9,7s4.4-1,5.4-2.9v3.6c0,2.6-1,3.6-3.5,3.6s-3.1-.6-3.3-2.1h-4.4c.2,3.9,2.9,5.9,7.7,5.9s8-2.9,8-7.4v-20.5h-3.9ZM1220.6,805.5c-3,0-5,1.5-5.9,4.1v-3.7h-4.1v21h4.6v-12.8c0-3.1,1.3-4.7,3.7-4.7s3,1.2,3,3.8v13.7h4.6v-14.5c0-4.6-2-7-5.8-7M1201.3,805.9v12.8c0,3.1-1.3,4.7-3.7,4.7s-3-1.2-3-3.8v-13.7h-4.6v14.5c0,4.6,2,7,5.8,7s5-1.5,5.9-4.1v3.7h4.1v-21h-4.6ZM1179.8,805.5c-3,0-5,1.5-5.9,4.1v-3.7h-4.1v21h4.6v-12.8c0-3.1,1.3-4.7,3.7-4.7s3,1.2,3,3.8v13.7h4.6v-14.5c0-4.6-2-7-5.8-7M1156.6,823.5c-1.9,0-2.8-.9-2.8-2.4s.8-2.3,3.1-3c2-.5,3-1,3.7-1.5v2.1c0,3.3-1.7,4.7-4,4.7M1165.8,826.9c-.3-1.2-.6-3.1-.6-6.2v-7.6c0-4.9-2.1-7.7-7.5-7.7s-7.6,2.7-7.6,7h4.3c0-2,.9-3.2,3.2-3.2s3,1,3,3-.7,1.9-5.1,3c-4.8,1.2-6.2,3.4-6.2,6.6s2.3,5.6,5.9,5.6,5.1-1.5,5.9-4.1c0,2,.2,3.4.5,3.7h4.2ZM1141,826.9h4.6v-29.1h-4.6v29.1ZM1132.1,819.6c0,2.6-.9,3.8-3,3.8s-3.8-1.6-3.8-4.7v-4.7c0-3.1,1.3-4.7,3.8-4.7s3,1.2,3,3.8v6.4ZM1130.8,805.5c-3,0-5.1,1.5-6,4.1v-3.7h-4.1v27.5h4.6v-9c1,1.9,3,2.9,5.5,2.9,3.9,0,5.9-2.4,5.9-7v-7.9c0-4.6-2-7-5.9-7M1105.1,814.1v-1.4c0-2.2,1.2-3.4,3.5-3.4s3.5,1.2,3.5,3.4v1.4h-7ZM1108.6,805.5c-5.2,0-8,2.8-8,7.7v6.4c0,4.9,2.9,7.7,8,7.7s7.9-2.7,8-7.3h-4.4c0,2.2-1.2,3.5-3.5,3.5s-3.5-1.3-3.5-3.5v-2.7h11.5v-4.2c0-5-2.8-7.7-8-7.7M1090.9,805.5c-2.8,0-4.8,1.4-5.7,3.8-.7-2.5-2.6-3.8-5.3-3.8s-4.9,1.5-5.8,4v-3.6h-4.1v21h4.6v-12.8c0-3,1.2-4.7,3.6-4.7s2.9,1.3,2.9,3.8v13.7h4.6v-12.8c0-3.1,1.2-4.7,3.5-4.7s2.9,1.5,2.9,3.8v13.7h4.6v-14.5c0-4.6-2-7-5.7-7M1065.1,805.5c-2.8,0-4.6,1.5-5.4,4.6v-4.2h-4.1v21h4.6v-10.9c0-4,1.7-6,5-6s1.1,0,1.5.2v-4.4c-.5-.2-1-.3-1.7-.3M1042.4,823.5c-1.9,0-2.8-.9-2.8-2.4s.8-2.3,3.1-3c2-.5,3-1,3.7-1.5v2.1c0,3.3-1.7,4.7-4,4.7M1051.5,826.9c-.3-1.2-.6-3.1-.6-6.2v-7.6c0-4.9-2.1-7.7-7.5-7.7s-7.6,2.7-7.6,7h4.3c0-2,.9-3.2,3.2-3.2s3,1,3,3-.7,1.9-5.1,3c-4.8,1.2-6.2,3.4-6.2,6.6s2.3,5.6,5.9,5.6,5.1-1.5,5.9-4.1c0,2,.2,3.4.5,3.7h4.2ZM1048.9,797.4h-4.4v5.2h4.4v-5.2ZM1042,797.4h-4.4v5.2h4.4v-5.2ZM1010.5,826.9h6.2l3.4-21.1,3.4,21.1h5.8l4.3-29.1h-4.1l-3.3,23.2-3.7-23.2h-4.8l-3.6,23.2-3.3-23.2h-4.6l4.3,29.1ZM994.9,805.5c-2.8,0-4.6,1.5-5.4,4.6v-4.2h-4.1v21h4.6v-10.9c0-4,1.7-6,5-6s1.1,0,1.5.2v-4.4c-.5-.2-1-.3-1.7-.3M969.9,814.1v-1.4c0-2.2,1.2-3.4,3.5-3.4s3.5,1.2,3.5,3.4v1.4h-7ZM973.3,805.5c-5.2,0-8,2.8-8,7.7v6.4c0,4.9,2.9,7.7,8,7.7s7.9-2.7,8-7.3h-4.4c0,2.2-1.2,3.5-3.5,3.5s-3.5-1.3-3.5-3.5v-2.7h11.5v-4.2c0-5-2.8-7.7-8-7.7M952.7,823.4c-2.2,0-3-1.2-3-3.8v-6.4c0-2.6.9-3.8,3-3.8s3.8,1.6,3.8,4.7v4.7c0,3.1-1.3,4.7-3.8,4.7M961.6,826.9c-.4-1.2-.6-3.1-.6-6.1v-22.9h-4.6v10.6c-1-1.9-3-3-5.5-3-3.9,0-5.9,2.4-5.9,7v7.9c0,4.6,2,7,5.9,7s5.1-1.5,5.9-4c0,2,.2,3.4.5,3.6h4.2ZM924.8,821.8c-2.2,0-3.1-1.2-3.1-3.8v-4.8c0-2.6.9-3.8,3.1-3.8s3.7,1.6,3.7,4.7v3.1c0,3.1-1.3,4.7-3.7,4.7M929.2,805.9v3.7c-1-2.6-3.1-4.1-6.1-4.1s-5.9,2.4-5.9,7v6.3c0,4.6,2,7,5.9,7s4.4-1,5.5-2.9v3.6c0,2.6-1,3.6-3.5,3.6s-3.1-.6-3.3-2.1h-4.4c.2,3.9,2.9,5.9,7.7,5.9s8-2.9,8-7.4v-20.5h-3.9ZM907.4,805.5c-3,0-5,1.5-5.9,4.1v-3.7h-4.1v21h4.6v-12.8c0-3.1,1.3-4.7,3.7-4.7s3,1.2,3,3.8v13.7h4.6v-14.5c0-4.6-2-7-5.8-7M888.1,805.9v12.8c0,3.1-1.3,4.7-3.7,4.7s-3-1.2-3-3.8v-13.7h-4.6v14.5c0,4.6,2,7,5.8,7s5-1.5,5.9-4.1v3.7h4.1v-21h-4.6ZM872,805.5c-2.8,0-4.6,1.5-5.4,4.6v-4.2h-4.1v21h4.6v-10.9c0-4,1.7-6,5-6s1.1,0,1.5.2v-4.4c-.5-.2-1-.3-1.7-.3M847,814.1v-1.4c0-2.2,1.2-3.4,3.5-3.4s3.5,1.2,3.5,3.4v1.4h-7ZM850.5,805.5c-5.2,0-8,2.8-8,7.7v6.4c0,4.9,2.9,7.7,8,7.7s7.9-2.7,8-7.3h-4.4c0,2.2-1.2,3.5-3.5,3.5s-3.5-1.3-3.5-3.5v-2.7h11.5v-4.2c0-5-2.8-7.7-8-7.7M833.7,826.9h4.6v-21h-4.6v21ZM833.7,802.7h4.6v-5.2h-4.6v5.2ZM823.4,805.5c-2.8,0-4.8,1.4-5.7,3.8-.7-2.5-2.6-3.8-5.3-3.8s-4.9,1.5-5.8,4v-3.6h-4.1v21h4.6v-12.8c0-3,1.2-4.7,3.6-4.7s2.9,1.3,2.9,3.8v13.7h4.6v-12.8c0-3.1,1.2-4.7,3.5-4.7s2.9,1.5,2.9,3.8v13.7h4.6v-14.5c0-4.6-2-7-5.7-7M793.2,826.9h4.6v-21h-4.6v21ZM793.2,802.7h4.6v-5.2h-4.6v5.2ZM789.4,809.6v-3.8h-4.5v-5.6h-4.1l-.3,5.6h-3.4v3.8h3.2v11.4c0,4.2,2,6.2,6.1,6.2s2-.2,3-.5v-3.9c-.7.3-1.5.4-2.1.4-1.8,0-2.5-.7-2.5-2.7v-10.9h4.5ZM769.6,819.6c0,2.6-.9,3.8-3,3.8s-3.8-1.6-3.8-4.7v-4.7c0-3.1,1.3-4.7,3.8-4.7s3,1.2,3,3.8v6.4ZM768.2,805.5c-3,0-5.1,1.5-6,4.1v-3.7h-4.1v27.5h4.6v-9c1,1.9,3,2.9,5.5,2.9,3.9,0,5.9-2.4,5.9-7v-7.9c0-4.6-2-7-5.9-7M745.1,823.2c-2.5,0-3.9-1.4-3.9-3.9v-13.8c0-2.5,1.4-3.9,3.9-3.9s3.9,1.4,3.9,3.9v13.8c0,2.5-1.4,3.9-3.9,3.9M745.1,827.3c5.5,0,8.6-3,8.6-8.3v-13.4c0-5.3-3.1-8.3-8.6-8.3s-8.6,3-8.6,8.3v13.4c0,5.3,3.1,8.3,8.6,8.3M724.3,805.5c-2.8,0-4.6,1.5-5.4,4.6v-4.2h-4.1v21h4.6v-10.9c0-4,1.7-6,5-6s1.1,0,1.5.2v-4.4c-.5-.2-1-.3-1.7-.3M705.5,805.9v12.8c0,3.1-1.3,4.7-3.7,4.7s-3-1.2-3-3.8v-13.7h-4.6v14.5c0,4.6,2,7,5.8,7s5-1.5,5.9-4.1v3.7h4.1v-21h-4.6ZM675.7,826.9h15v-3.8h-10.1l10.1-13.4v-3.8h-14.4v3.9h9.6l-10.1,13.3v3.8Z"/>
    <path class="st1" d="M1187.9,760.4c-3,0-5,1.5-5.9,4.1v-3.7h-4.1v21h4.6v-12.8c0-3.1,1.3-4.7,3.7-4.7s3,1.2,3,3.8v13.7h4.6v-14.5c0-4.6-2-7-5.8-7M1162.4,769v-1.4c0-2.2,1.2-3.4,3.5-3.4s3.5,1.2,3.5,3.4v1.4h-7ZM1165.8,760.4c-5.2,0-8,2.8-8,7.7v6.4c0,4.9,2.9,7.7,8,7.7s7.9-2.7,8-7.3h-4.4c0,2.2-1.2,3.5-3.5,3.5s-3.5-1.3-3.5-3.5v-2.7h11.5v-4.2c0-4.9-2.8-7.7-8-7.7M1145.3,776.8c-2.2,0-3.1-1.2-3.1-3.8v-4.8c0-2.6.9-3.8,3.1-3.8s3.7,1.6,3.7,4.7v3.1c0,3.1-1.3,4.7-3.7,4.7M1149.7,760.8v3.7c-1-2.6-3.1-4.1-6.1-4.1s-5.9,2.4-5.9,7v6.3c0,4.6,2,7,5.9,7s4.4-1,5.4-2.9v3.6c0,2.6-1,3.6-3.5,3.6s-3.1-.6-3.3-2.1h-4.4c.2,3.9,2.9,5.9,7.7,5.9s8-2.9,8-7.4v-20.5h-3.9ZM1127.8,760.4c-3,0-5,1.5-5.9,4.1v-3.7h-4.1v21h4.6v-12.8c0-3.1,1.3-4.7,3.7-4.7s3,1.2,3,3.8v13.7h4.6v-14.5c0-4.6-2-7-5.8-7M1108.5,760.8v12.8c0,3.1-1.3,4.7-3.7,4.7s-3-1.2-3-3.8v-13.7h-4.6v14.5c0,4.6,2,7,5.8,7s5-1.5,5.9-4.1v3.7h4.1v-21h-4.6ZM1086.2,782.3c4.9,0,7.5-2.6,7.5-6.7s-3.1-5.3-6.1-6.1c-2.7-.6-4.5-1.1-4.5-3s1.3-2.5,2.9-2.5,2.9.8,2.9,2.4v.4h4.3v-.5c0-3.7-2.9-6.1-7.3-6.1s-7.3,2.5-7.3,6.4,3,5.7,6.1,6.3c2.5.5,4.4,1,4.4,2.8s-1.2,2.7-3.2,2.7-3.2-1-3.2-2.7v-.7h-4.4v.7c0,3.9,2.8,6.4,7.8,6.4M1067.2,778.3c-2.2,0-3.4-1.2-3.4-3.4v-7.1c0-2.2,1.2-3.5,3.4-3.5s3.4,1.2,3.4,3.5v7.1c0,2.2-1.2,3.4-3.4,3.4M1067.2,782.3c5.1,0,8-2.7,8-7.7v-6.4c0-4.9-2.9-7.7-8-7.7s-8,2.8-8,7.7v6.4c0,5,2.9,7.7,8,7.7M1068.5,757.6h4.4v-5.2h-4.4v5.2ZM1061.5,757.6h4.4v-5.2h-4.4v5.2ZM1041.3,781.9h14.9v-4.2h-10.2v-24.9h-4.7v29.1ZM1018.1,769v-1.4c0-2.2,1.2-3.4,3.5-3.4s3.5,1.2,3.5,3.4v1.4h-7ZM1021.5,760.4c-5.2,0-8,2.8-8,7.7v6.4c0,4.9,2.9,7.7,8,7.7s7.9-2.7,8-7.3h-4.4c0,2.2-1.2,3.5-3.5,3.5s-3.5-1.3-3.5-3.5v-2.7h11.5v-4.2c0-4.9-2.8-7.7-8-7.7M1003.7,760.4c-2.5,0-4.4,1-5.4,2.9v-10.6h-4.6v29.1h4.6v-12.8c0-3.1,1.3-4.7,3.7-4.7s3,1.2,3,3.8v13.7h4.6v-14.5c0-4.6-2-7-5.8-7M982.1,782.3c5.2,0,7.7-3,7.7-7.7v-.8h-4.4v1.2c0,2.2-1,3.4-3.3,3.4s-3.3-1.2-3.3-3.4v-7.2c0-2.2,1.2-3.4,3.3-3.4s3.3,1.2,3.3,3.4v.7h4.4v-.5c0-4.7-2.5-7.6-7.7-7.6s-7.9,2.8-7.9,7.7v6.4c0,4.9,2.8,7.7,7.9,7.7M965.4,781.9h4.6v-21h-4.6v21ZM965.4,757.6h4.6v-5.2h-4.6v5.2ZM956,781.9h4.6v-29.1h-4.6v29.1ZM952.2,764.6v-3.8h-4.5v-5.6h-4.1l-.3,5.6h-3.4v3.8h3.2v11.4c0,4.2,2,6.2,6.1,6.2s2-.2,3-.5v-3.9c-.7.3-1.5.4-2.1.4-1.8,0-2.5-.7-2.5-2.7v-10.9h4.5ZM936.3,756.4c.6,0,1.3,0,2.1.4v-3.9c-1-.4-1.8-.5-3-.5-4.2,0-6.1,2-6.1,6.2v2.2h-3.2v3.8h3.2v17.3h4.6v-17.3h4.5v-3.8h-4.5v-1.7c0-2,.7-2.7,2.5-2.7M914.3,778.5c-1.9,0-2.8-.9-2.8-2.4s.8-2.3,3.1-3c2-.5,3-1,3.7-1.5v2.1c0,3.3-1.7,4.7-4,4.7M923.4,781.9c-.3-1.2-.6-3.1-.6-6.2v-7.6c0-4.9-2.1-7.7-7.5-7.7s-7.6,2.7-7.6,7h4.3c0-2,.9-3.2,3.2-3.2s3,1,3,3-.7,1.9-5.1,3c-4.8,1.2-6.2,3.4-6.2,6.6s2.3,5.6,5.9,5.6,5.1-1.5,5.9-4.1c0,2,.2,3.4.5,3.7h4.2ZM897.6,760.4c-2.5,0-4.4,1-5.4,2.9v-10.6h-4.6v29.1h4.6v-12.8c0-3.1,1.3-4.7,3.7-4.7s3,1.2,3,3.8v13.7h4.6v-14.5c0-4.6-2-7-5.8-7M876,782.3c5.2,0,7.7-3,7.7-7.7v-.8h-4.4v1.2c0,2.2-1,3.4-3.3,3.4s-3.3-1.2-3.3-3.4v-7.2c0-2.2,1.2-3.4,3.3-3.4s3.3,1.2,3.3,3.4v.7h4.4v-.5c0-4.7-2.5-7.6-7.7-7.6s-7.9,2.8-7.9,7.7v6.4c0,4.9,2.8,7.7,7.9,7.7M857.4,782.3c4.9,0,7.5-2.6,7.5-6.7s-3.1-5.3-6.1-6.1c-2.7-.6-4.5-1.1-4.5-3s1.3-2.5,2.9-2.5,2.9.8,2.9,2.4v.4h4.3v-.5c0-3.7-2.9-6.1-7.3-6.1s-7.3,2.5-7.3,6.4,3,5.7,6.1,6.3c2.5.5,4.4,1,4.4,2.8s-1.2,2.7-3.2,2.7-3.2-1-3.2-2.7v-.7h-4.4v.7c0,3.9,2.8,6.4,7.8,6.4M840.1,760.4c-3,0-5,1.5-5.9,4.1v-3.7h-4.1v21h4.6v-12.8c0-3.1,1.3-4.7,3.7-4.7s3,1.2,3,3.8v13.7h4.6v-14.5c0-4.6-2-7-5.8-7M820.8,781.9h4.6v-21h-4.6v21ZM820.8,757.6h4.6v-5.2h-4.6v5.2ZM805.2,769v-1.4c0-2.2,1.2-3.4,3.5-3.4s3.5,1.2,3.5,3.4v1.4h-7ZM808.7,760.4c-5.2,0-8,2.8-8,7.7v6.4c0,4.9,2.9,7.7,8,7.7s7.9-2.7,8-7.3h-4.4c0,2.2-1.2,3.5-3.5,3.5s-3.5-1.3-3.5-3.5v-2.7h11.5v-4.2c0-4.9-2.8-7.7-8-7.7M791,760.4c-2.8,0-4.8,1.4-5.7,3.8-.7-2.5-2.6-3.8-5.3-3.8s-4.9,1.5-5.8,4v-3.6h-4.1v21h4.6v-12.8c0-3,1.2-4.7,3.6-4.7s2.9,1.3,2.9,3.8v13.7h4.6v-12.8c0-3.1,1.2-4.7,3.5-4.7s2.9,1.5,2.9,3.8v13.7h4.6v-14.5c0-4.6-2-7-5.7-7M754.6,769v-1.4c0-2.2,1.2-3.4,3.5-3.4s3.5,1.2,3.5,3.4v1.4h-7ZM758.1,760.4c-5.2,0-8,2.8-8,7.7v6.4c0,4.9,2.9,7.7,8,7.7s7.9-2.7,8-7.3h-4.4c0,2.2-1.2,3.5-3.5,3.5s-3.5-1.3-3.5-3.5v-2.7h11.5v-4.2c0-4.9-2.8-7.7-8-7.7M737.8,782.3c5.4,0,8.4-3,8.4-8.2v-8.5h-8.1v4.3h3.7v4.3c0,2.5-1.4,3.9-3.9,3.9s-3.9-1.4-3.9-3.9v-13.8c0-2.5,1.4-3.9,3.9-3.9s3.9,1.4,3.9,3.9v1.8h4.4v-1.6c0-5.2-3.1-8.3-8.5-8.3s-8.4,3-8.4,8.3v13.5c0,5.2,3.1,8.2,8.5,8.2"/>
  </g>
</svg>